<svg width="21" height="21" viewBox="0 0 21 21" fill="none" xmlns="http://www.w3.org/2000/svg">
<path d="M9.65953 16.7995C5.70507 16.7995 2.51953 13.614 2.51953 9.65953C2.51953 5.70507 5.70507 2.51953 9.65953 2.51953C13.614 2.51953 16.7995 5.70507 16.7995 9.65953C16.7995 13.614 13.614 16.7995 9.65953 16.7995ZM9.65953 3.61799C6.30922 3.61799 3.61799 6.30922 3.61799 9.65953C3.61799 13.0098 6.30922 15.7011 9.65953 15.7011C13.0098 15.7011 15.7011 13.0098 15.7011 9.65953C15.7011 6.30922 13.0098 3.61799 9.65953 3.61799Z" fill="black"/>
<path d="M14.2413 13.4395L19.3214 18.5195L18.5215 19.3195L13.4414 14.2394L14.2413 13.4395Z" fill="black"/>
</svg>
