<svg width="567" height="823" viewBox="0 0 567 823" fill="none" xmlns="http://www.w3.org/2000/svg">
<path fill-rule="evenodd" clip-rule="evenodd" d="M1.12109 0C0.855877 0 0.601523 0.105357 0.413987 0.292893C0.226451 0.48043 0.121094 0.734784 0.121094 1V87.9631C0.121094 88.5154 0.568809 88.9631 1.12109 88.9631H233.71L167.384 533.534C167.341 533.822 167.425 534.114 167.615 534.335C167.805 534.555 168.082 534.682 168.373 534.682H267.784C268.28 534.682 268.701 534.318 268.773 533.827L333.802 88.9631H566C566.552 88.9631 567 88.5154 567 87.9631V1C567 0.447715 566.552 0 566 0H1.12109ZM2.12109 86.9631V2H565V86.9631H332.938C332.442 86.9631 332.02 87.3272 331.948 87.8184L266.919 532.682H169.533L235.86 88.1106C235.903 87.8228 235.818 87.5306 235.628 87.3102C235.438 87.0898 235.162 86.9631 234.871 86.9631H2.12109ZM2.12109 514.127V138.188H97.5167V548.517C97.5167 580.917 106.88 625.856 131.51 663.535C156.166 701.254 196.125 731.695 257.206 734.951C333.324 739.008 387.558 717.876 422.761 682.908C457.951 647.953 474.001 599.293 474.001 548.517V275.073H565L565 567.387L565 567.393C564.553 611.599 548.815 677.186 503.958 730.49C459.138 783.752 385.169 824.844 268.042 820.001C150.944 815.159 84.54 766.073 47.3572 704.607C10.1303 643.068 2.12071 568.996 2.12109 514.127ZM1.12109 136.188C0.568809 136.188 0.121094 136.635 0.121094 137.188V514.127C0.12071 569.131 8.13888 643.64 45.6459 705.642C83.1971 767.717 150.233 817.131 267.959 821.999C385.657 826.866 460.239 785.549 505.489 731.778C550.7 678.052 566.55 611.986 567 567.408L567 567.398V274.073C567 273.52 566.552 273.073 566 273.073H473.001C472.449 273.073 472.001 273.52 472.001 274.073V548.517C472.001 598.888 456.082 646.991 421.352 681.489C386.634 715.975 332.998 736.988 257.313 732.953C196.952 729.736 157.539 699.7 133.184 662.441C108.803 625.142 99.5167 580.6 99.5167 548.517V137.188C99.5167 136.635 99.069 136.188 98.5167 136.188H1.12109ZM378.166 133.455C377.68 133.455 377.265 133.804 377.181 134.283L362.421 218.548C362.37 218.839 362.451 219.137 362.641 219.363C362.831 219.59 363.111 219.72 363.406 219.72H566C566.552 219.72 567 219.273 567 218.72V134.455C567 133.903 566.552 133.455 566 133.455H378.166ZM364.597 217.72L379.006 135.455H565V217.72H364.597Z" fill="white"/>
</svg>
