<svg width="545" height="546" viewBox="0 0 545 546" fill="none" xmlns="http://www.w3.org/2000/svg">
<g opacity="0.47">
<path d="M259.594 313.362C257.511 310.612 255.371 310.259 252.058 310.259C250.98 310.259 250.964 310.482 250.187 311.047C248.615 312.19 247.153 309.637 246.074 309.397C242.999 308.714 240.036 310.523 237.085 311.047C231.957 311.959 226.046 311.146 220.832 311.146C219.581 311.146 218.831 311.827 217.655 312.008C215.337 312.364 213.08 311.372 211.301 310.037C209.431 308.635 208.519 306.208 205.613 307.255C205.088 307.444 204.164 309.957 203.741 310.604C202.991 311.751 202.269 312.377 201.081 313.14C198.784 314.617 194.951 313.927 193.102 315.775C190.657 318.221 189.556 319.593 189.556 323.114C189.556 324.041 189.798 325.432 189.458 326.316C188.534 328.718 182.629 329.032 180.543 329.32C179.08 329.522 177.696 330.026 176.258 330.231C174.307 330.51 174.684 331.31 173.943 332.866C172.668 335.543 168.356 336.778 166.284 338.851C164.83 340.305 161.99 342.111 161.63 344.392C161.298 346.491 157.64 346.103 157.64 348.603C157.64 350.049 157.748 350.519 158.699 351.681C159.592 352.772 159.838 357.075 159.857 358.379C159.884 360.293 160.3 362.123 160.3 363.994C160.3 365.77 159.381 366.755 158.33 368.107C157.241 369.507 153.706 370.904 153.232 372.564C152.17 376.283 155.022 378.257 156.409 381.184C157.605 383.71 159.053 386.535 161.531 388.079C162.461 388.658 163.495 388.953 164.388 389.606C165.414 390.356 165.307 391.709 166.087 392.684C167.298 394.198 168.722 394.917 168.722 396.92C168.722 398.583 168.219 401.014 169.264 402.461C170.574 404.274 172.77 405.689 173.5 407.879C174.697 411.47 176.075 413.015 179.779 414.799C181.82 415.781 184.703 416.165 186.232 418C187.208 419.172 188.319 420.315 190.098 420.192C192.29 420.041 193.43 418.184 195.959 419.059C199.189 420.177 200.839 423.742 204.234 424.822C208.993 426.336 216.754 425.064 221.177 423.295C222.781 422.653 223.032 421.522 224.772 421.522C227.045 421.522 231.084 420.77 233.096 422.162C236.467 424.496 236.594 429.231 239.844 431.89C243.051 434.514 247.744 427.029 251.369 430.584C256.662 435.776 253.058 440.486 250.507 446.099C247.918 451.796 253.82 452.934 257.722 455.309C260.654 457.094 261.236 460.399 263.584 462.747C265.561 464.724 269.848 465.843 268.804 469.494C268.456 470.713 268.696 472.208 268.016 473.287C266.806 475.209 265.153 476.615 263.14 477.621C261.522 478.43 259.714 483.126 261.392 484.664C264.39 487.412 265.74 490.869 268.115 494.121C270.214 496.996 273.365 498.413 275.897 500.77C276.936 501.737 277.885 502.94 279.394 503.06C281.438 503.224 284.615 502.358 286.166 504.169C286.814 504.924 287.397 505.793 288.062 506.533C289.818 508.483 291.618 508.519 294.071 508.946C299.812 509.945 306.09 508.138 311.901 507.863C315.541 507.69 318.589 507.81 321.653 506.188C323.981 504.956 325.771 503.235 328.08 501.952C330.335 500.7 332.228 498.603 334.582 497.544C336.03 496.893 337.657 496.751 339.138 496.19C340.608 495.632 341.756 494.753 343.374 494.663C344.928 494.576 345.724 493.138 346.575 492.003C347.967 490.147 350.42 488.561 351.353 486.462C351.778 485.504 351.966 484.773 351.574 483.753C350.276 480.379 356.309 477.924 358.47 476.907C362.956 474.796 371.537 472.029 372.975 466.638C373.714 463.867 374.933 461.082 375.388 458.215C375.769 455.815 377.395 452.252 376.373 449.916C375.307 447.48 371.743 444.434 371.743 441.913C371.743 434.406 380.488 429.804 385.042 424.6C387.187 422.148 389.181 419.404 391.248 416.867C392.675 415.115 394.509 414.044 395.68 412.115C398.512 407.451 401.793 402.427 403.856 397.363C405.213 394.032 405.721 389.896 403.413 387.045C401.581 384.781 394.976 384.023 392.676 386.158C391.417 387.328 390.763 389.091 388.933 389.507C386.751 390.003 384.601 390.049 382.382 390.049C381.167 390.049 379.751 390.461 379.254 389.138C378.38 386.806 377.218 384.813 375.634 382.957C372.117 378.833 364.575 379.784 362.188 374.214C360.633 370.585 359.443 366.787 357.731 363.231C356.426 360.522 353.195 359.086 351.008 357.247C348.042 354.753 348.585 349.178 347.806 345.672C347.364 343.681 346.148 341.896 344.703 340.451C343.465 339.213 341.372 339.593 339.926 338.629C338.515 337.688 338.274 336.471 337.414 335.181C336.571 333.916 334.449 332.934 334.089 331.315C333.307 327.794 330.48 326.217 326.923 326.217C323.052 326.217 320.143 327.242 316.654 328.852C314.9 329.662 312.652 329.456 310.768 328.877C309.251 328.41 307.37 328.107 305.793 327.99C303.707 327.836 301.852 326.217 299.711 326.217C297.961 326.217 296.194 325.904 295.303 327.769C294.444 329.563 293.874 332.036 293.382 333.95C293.07 335.161 293.582 336.718 291.609 336.314C288.659 335.711 285.632 333.918 282.645 333.088C280.179 332.403 277.996 332.106 275.724 330.822C273.902 329.792 272.502 326.979 270.577 326.316C267.85 325.375 264.232 326.504 261.367 326.217C260.234 326.104 260.037 321.351 260.037 320.257C260.037 318.255 260.037 316.252 260.037 314.249" stroke="white" stroke-width="2" stroke-linecap="round"/>
<circle cx="272.5" cy="273.02" r="271.5" stroke="white" stroke-width="2"/>
<path d="M300.491 156.969C298.623 156.613 297.303 156.107 296.113 154.577C295.484 153.768 294.769 152.582 293.878 152.185C291.585 151.167 288.093 151.119 286.921 153.592C286.317 154.868 286.421 155.967 286.421 157.391C286.421 160.095 281.181 160.346 279.23 160.346C277.171 160.346 275.944 162.1 274.603 163.441C271.752 166.291 271.17 170.435 268.975 173.727C267.245 176.323 265.648 178.821 263.769 181.278C262.321 183.172 259.592 184.239 257.704 185.655C255.113 187.598 251.687 188.592 249.84 191.361C247.74 194.512 248.152 198.541 248.152 202.148C248.152 204.225 247.916 206.08 250.012 207.322C251.881 208.429 254.709 209.223 256.453 207.479C257.45 206.482 258.115 204.355 259.408 203.742C262.734 202.167 263.559 206.899 264.129 208.964C264.686 210.983 264.473 213.258 264.473 215.342C264.473 217.185 264.385 219.84 265.473 221.423C266.274 222.588 268.384 224.781 270.1 223.877C271.702 223.034 271.15 220.597 271.226 219.156C271.251 218.686 272.281 218.241 272.695 218.093C274.064 217.605 275.221 217.212 276.244 216.061C277.516 214.63 277.417 212.081 277.417 210.293C277.417 208.565 276.4 207.22 278.386 206.212C280.711 205.033 281.521 205.166 281.356 202.273C281.215 199.802 277.875 198.461 277.276 196.067C276.53 193.085 277.17 190.552 279.089 188.344C281.305 185.796 283.01 183.218 284.295 180.106C285.199 177.916 285.491 175.541 286.765 173.571C287.131 173.006 288.895 173.008 289.485 173.008C290.717 173.008 291.236 173.203 291.767 174.384C292.273 175.508 292.612 177.258 292.612 178.511C292.612 180.799 291.649 182.136 290.361 183.983C289.547 185.148 288.184 185.655 287.328 186.796C286.35 188.1 285.328 189.855 284.889 191.424C284.188 193.929 284.467 197.388 285.718 199.6C289.591 206.452 297.729 195.755 301.96 195.019C305.627 194.382 308.338 196.707 308.338 200.428C308.338 205.282 302.658 206.212 298.99 206.212C298.047 206.212 293.564 205.612 293.237 206.556C292.705 208.094 293.107 210.454 293.8 211.84C294.851 213.942 293.06 214.091 291.08 214.091C290.362 214.091 289.244 213.511 288.735 214.216C288.031 215.19 287.828 217.79 287.828 219.016C287.828 220.975 287.985 223.05 286.828 224.722C285.583 226.519 283.988 226.472 281.919 226.472C280.96 226.472 280.001 226.472 279.042 226.472C277.429 226.472 277.083 226.703 276.01 227.895C275.132 228.871 274.455 230.629 273.008 230.912C271.443 231.218 269.284 231.152 267.709 230.818C264.806 230.203 261.752 229.284 259.408 227.442C257.04 225.581 257.298 222.51 257.719 219.875C257.865 218.966 259.326 216.511 258.438 215.623C257.453 214.638 254.187 215.217 252.983 215.217C251.015 215.217 250.127 215.842 249.496 217.874C248.748 220.285 248.847 223.049 249.293 225.503C249.847 228.547 247.235 230.154 245.072 232.1C243.958 233.103 242.679 234.257 241.399 235.039C240.253 235.739 238.921 236.138 237.803 236.884C235.706 238.282 236.423 241.235 233.801 242.449C232.291 243.148 230.07 242.793 228.455 242.793C226.634 242.793 225.024 243.033 223.233 243.293C220.537 243.686 217.608 244.718 214.885 244.763C214.36 244.771 212.917 244.491 212.416 244.825C211.075 245.719 212.008 248.658 212.9 249.406C214.884 251.068 217.377 251.876 219.169 253.767C220.335 254.999 220.294 256.507 220.294 258.098C220.294 260.843 220.351 263.4 219.732 266.086C219.114 268.762 218.456 272.198 215.511 272.902C212.032 273.733 209.97 271.419 207.038 269.807C205.642 269.039 204.035 267.83 202.504 267.337C200.852 266.803 198.916 266.993 197.205 266.993C195.296 266.993 193.049 267.671 191.311 268.54C190.697 268.847 188.875 269.177 188.56 269.807C188.028 270.87 188.432 273.293 188.513 274.465C188.673 276.784 189.623 279.006 189.623 281.344C189.623 282.792 187.866 284.529 186.934 285.564C186.237 286.338 185.965 288.919 185.965 289.957C185.965 292.068 186.782 293.669 188.107 295.288C188.925 296.288 190.122 296.402 191.171 297.101C192.513 297.996 193.863 298.652 195.251 299.415C196.802 300.268 197.389 302.064 198.846 303.073C199.538 303.552 200.85 303.174 201.504 302.729C202.851 301.813 203.995 301.885 205.647 301.885C206.975 301.885 208.327 302.028 209.602 301.604C211.376 301.012 215.068 300.415 215.933 298.618C216.899 296.611 218.211 294.769 219.278 292.802C220.023 291.431 220.362 289.836 220.92 288.378C221.587 286.634 222.342 284.787 223.702 283.47C225.068 282.147 227.09 282.231 228.767 281.5C231.574 280.277 233.11 279.878 234.223 276.982C234.52 276.209 234.463 275.219 235.489 274.934C237.637 274.338 240.585 274.872 242.806 274.872C244.765 274.872 246.724 274.872 248.684 274.872C249.792 274.872 250.94 275.107 251.81 274.309C252.313 273.847 253.185 272.902 253.921 272.902C254.767 272.902 256.252 273.862 256.656 274.59C258.027 277.057 254.444 280.486 256.781 282.625C257.934 283.681 259.685 284.002 261.096 284.579C262.66 285.219 263.996 286.231 265.379 287.19C266.768 288.153 268.146 288.692 269.381 289.91C270.489 291.003 271.515 292.279 272.649 293.318C273.786 294.361 275.447 295.809 275.447 297.383C275.447 297.891 275.686 299.189 275.369 299.634C274.495 300.857 271.265 300.02 269.882 300.415C268.691 300.756 267.145 300.622 265.911 300.759C264.847 300.878 263.856 301.041 262.784 301.041C259.824 301.041 261.638 303.575 263.363 304.371C264.681 304.979 266.78 305.117 267.912 306.043C268.46 306.491 268.663 307.101 269.131 307.653C269.649 308.265 270.696 309.169 271.539 308.748C273.15 307.942 275.337 306.153 276.291 304.636C277.881 302.109 279.518 300.308 280.168 297.383C280.316 296.718 280.1 296.002 280.293 295.35C280.436 294.869 280.278 293.365 280.559 293.037C281.149 292.348 283.344 292.945 283.889 293.443C284.726 294.209 285.418 294.071 285.983 293.021C286.423 292.204 285.87 291.382 285.186 290.926C284.768 290.648 285.093 289.601 284.952 289.16C283.825 285.654 279.246 285.961 276.416 285.283C273.297 284.536 271.875 281.395 270.132 278.967C268.749 277.041 266.724 274.149 266.724 271.729C266.724 270.434 266.688 269.132 266.724 267.837C266.78 265.795 267.868 266.191 269.319 267.071C273.904 269.85 276.847 274.735 280.121 278.858C281.194 280.21 282.039 281.334 283.623 282.047C284.924 282.632 286.428 282.482 287.672 283.157C290.743 284.824 292.186 288.196 290.986 291.474C290.42 293.02 289.771 294.64 289.798 296.32C289.844 299.225 293.323 301.426 295.66 302.542C297.376 303.361 297.677 303.859 297.677 305.824C297.677 307.208 297.817 308.34 298.802 309.436C301.279 312.187 304.228 309.387 304.868 306.669C305.115 305.616 305.633 303.338 304.93 302.401C303.933 301.071 302.309 300.245 301.772 298.665C300.879 296.034 299.365 293.741 299.365 290.911C299.365 290.105 299.099 289.142 299.865 288.66C301.168 287.84 303.445 288.525 304.915 288.222C307.654 287.658 308.657 287.138 311.121 289.097C313.006 290.597 314.941 289.785 317.155 289.785C319.518 289.785 320.751 289.672 320.751 286.94C320.751 283.051 316.248 280.359 316.248 276.669C316.248 275.257 316.332 274.357 317.249 273.183C318.224 271.935 319.129 271.294 319.625 269.807C320.666 266.684 320.595 263.522 322.095 260.521C322.602 259.507 324.54 259.958 325.519 259.958C326.855 259.958 327.773 260.878 328.567 261.928C328.943 262.425 329.101 263.42 329.786 263.616C331.994 264.247 334.125 264.179 336.415 264.179C338.398 264.179 339.652 262.49 341.683 262.49C343.588 262.49 344.919 263.633 346.451 264.679C347.818 265.612 349.731 265.674 351.328 266.008C354.399 266.65 356.996 267.047 359.864 268.337C361.57 269.105 363.714 271.821 361.771 273.465C359.146 275.686 354.633 276.72 351.328 277.342C348.94 277.79 346.641 278.248 344.215 278.248C342.251 278.248 340.315 278.53 338.353 278.53C336.049 278.53 333.57 278.323 331.303 278.827C330.569 278.99 328.987 280.726 328.411 281.281C327.444 282.213 327.357 283.315 327.082 284.579C326.639 286.616 326.04 288.955 324.831 290.629C323.192 292.898 321.056 294.18 318.625 295.35C317.728 295.782 316.036 296.239 315.826 297.289C315.473 299.056 315.585 300.757 317.218 301.822C319.449 303.278 322.531 304.699 325.237 304.699C326.42 304.699 327.603 304.699 328.786 304.699C329.68 304.699 329.954 304.136 330.74 304.136C331.829 304.136 332.882 303.855 333.992 303.855C335.994 303.855 337.476 302.829 339.385 302.448C340.956 302.134 341.995 301.959 343.293 301.166C344.227 300.595 345.088 300.167 346.201 300.197C347.992 300.245 349.24 301.975 350.281 303.276C351.379 304.649 351.141 306.346 351.141 308.013C351.141 311.219 343.484 333.548 342.5 336.5" stroke="white" stroke-width="2" stroke-linecap="round"/>
<path d="M300.361 157.077C301.197 157.464 302.105 157.516 302.986 157.758C303.482 157.895 303.868 157.901 304.395 157.901C305.644 157.901 306.894 157.885 308.143 157.901C309.414 157.917 310.832 158.04 312.045 158.409C312.819 158.645 313.623 158.677 314.359 159.045C315.3 159.516 316.453 160.305 316.729 161.38C316.916 162.107 317.024 162.771 317.024 163.526C317.024 164.479 316.376 165.523 315.742 166.227C314.955 167.102 313.822 167.286 312.721 167.514C311.685 167.728 310.663 167.697 309.608 167.697C308.852 167.697 307.907 167.54 307.177 167.788C306.677 167.958 306.362 168.612 306.231 169.08C305.938 170.127 306.184 171.234 306.887 172.051C307.767 173.072 308.699 173.368 309.969 173.638C310.846 173.824 311.601 173.976 312.268 174.625C313.456 175.778 313.808 177.664 315.508 178.226C316.414 178.524 316.834 178.322 317.574 177.748C318.498 177.03 318.5 176.132 318.489 175.042C318.485 174.658 318.104 173.565 318.469 173.302C318.829 173.043 319.613 173.192 320.015 173.19C320.998 173.185 322.018 173.205 322.991 173.043C323.899 172.891 323.891 171.925 323.891 171.181C323.891 170.189 323.325 169.374 322.787 168.567C322.376 167.949 322.071 167.422 322.06 166.669C322.043 165.59 323.068 165.283 323.738 164.604C324.211 164.125 324.325 163.351 324.242 162.702C324.144 161.933 323.378 161.333 322.863 160.83C322.128 160.113 321.336 159.44 320.671 158.653C320.145 158.031 319.788 157.278 319.771 156.456C319.757 155.776 319.572 154.589 320.351 154.259C321.754 153.663 323.831 154.1 325.132 154.706C325.762 155 326.497 155.441 326.907 156.019C327.204 156.437 327.258 157.085 327.37 157.575C327.514 158.21 327.541 163.007 329.348 161.802C332.486 159.71 332.588 155.699 332.588 152.331C332.588 151.539 332.588 150.748 332.588 149.956C332.588 149.158 332.563 148.373 333.25 147.83C334.01 147.228 335.312 147.474 336.2 147.463C337.463 147.448 338.579 147.255 339.608 146.507C340.503 145.856 341.415 145.074 342.003 144.122C342.086 143.988 342.65 143.158 342.461 142.937C342.261 142.704 341.36 143.479 341.256 143.567C340.795 143.958 340.374 144.441 340.157 145.012C340.104 145.152 340.053 145.35 340.289 145.297C340.96 145.144 341.573 144.494 341.983 143.984C342.784 142.989 343.145 141.551 342.415 140.414C341.994 139.758 341.438 139.133 340.92 138.552C340.607 138.201 340.101 137.89 339.862 137.484C339.049 136.105 343.102 136.019 343.616 136.019C344.806 136.019 345.8 136.094 346.957 136.375C348.309 136.704 349.544 137.233 350.833 137.748C351.46 137.999 351.461 137.947 351.581 137.296C351.866 135.749 349.681 134.778 348.534 134.3C347.438 133.843 346.282 133.544 345.213 133.018C344.4 132.618 343.605 132.187 342.781 131.808C341.976 131.437 341.488 131.295 341.103 130.526" stroke="white" stroke-width="2" stroke-linecap="round"/>
<path d="M340.325 130.542C339.764 129.24 339.324 127.943 338.85 126.617C338.483 125.589 338.027 125.036 337.83 123.918C337.715 123.27 337.487 122.266 337.716 121.604C338.017 120.735 339.717 120.538 340.461 120.538C345.465 120.538 346.872 126.524 351.203 127.967C352.527 128.408 353.883 129.615 355.025 130.44C356.83 131.743 357.237 134.742 358.496 136.531C358.771 136.922 359.808 136.588 360.084 136.372C360.82 135.796 361.384 134.679 361.513 133.763C361.878 131.167 360.159 127.958 358.405 126.164C355.21 122.895 351.126 120.515 347.482 117.781C346.465 117.018 347.098 113.787 347.369 112.825C347.953 110.746 346.212 109.819 344.499 108.9C342.951 108.07 342.367 106.897 342.367 105.18C342.367 102.472 343.184 99.7136 341.051 97.5802C339.115 95.6441 338.016 92.7978 336.548 90.5137C335.279 88.5398 334.813 86.9859 334.813 84.7063C334.813 83.4758 335.715 80.725 337.365 80.725C339.526 80.725 340.091 84.5546 342.457 84.8537C344.949 85.1687 347.365 84.3134 347.834 81.5871C348.254 79.1396 349.131 75.809 347.993 73.4658C347.405 72.2549 346.353 71.632 345.18 71.1292C344.435 70.8102 343.642 69.9716 344.045 69.0648C344.545 67.9405 347.634 67.0906 348.787 66.7282C349.718 66.4356 351.28 65.3385 351.135 64.1762C351.041 63.4253 350.317 62.9249 349.683 62.6449C348.259 62.0169 346.939 61.3022 345.452 60.8187C343.898 60.3138 342.058 59.371 340.824 58.2666C340.412 57.8981 339.806 58.0798 339.259 58.0171C337.164 57.7771 335.094 56.7154 333.247 55.7713C330.654 54.4457 328.688 53.9445 328.688 50.8259C328.688 49.2444 329.059 48.2994 330.219 47.1395C330.916 46.4422 330.789 45.902 330.321 45.2" stroke="white" stroke-width="2" stroke-linecap="round"/>
<path d="M328.687 44.9961C327.313 44.5567 325.907 44.1752 324.49 43.9299C323.963 43.8387 323.352 43.8495 323.072 43.3514C322.528 42.3837 322.209 41.5976 322.403 40.4591C322.496 39.9101 323.165 38.5285 322.822 38.0544C321.84 36.6948 318.689 36.8603 317.253 36.5799C314.126 35.9691 311.054 35.5662 308.213 33.9711C304.926 32.1258 302.47 29.0139 298.776 28.0502C297.248 27.6515 295.431 27.6579 293.967 27.1088C292.804 26.6728 291.905 25.7433 290.802 25.1919C289.21 24.3958 287.524 24.2122 285.834 23.7514C284.546 23.4001 283.833 21.75 283.361 20.6548C283.049 19.9295 282.742 18.8276 282.987 18.012C283.169 17.4071 284.217 15.7467 284.836 15.4372C285.203 15.2535 286.031 16.0628 286.242 16.2426C287.637 17.4277 289.015 18.4262 290.723 19.1349C293.463 20.2716 296.482 20.4762 299.377 20.9951C302.691 21.5891 306.746 23.1208 309.937 21.3921C313.702 19.3531 318.519 19.7414 322.55 20.893C326.866 22.1262 331.241 22.9223 335.64 23.8648C336.953 24.1462 338.081 24.1773 338.691 25.3961C339.297 26.6078 338.661 26.9539 337.693 27.8347C337.205 28.2777 336.391 28.7851 337.193 29.4227C339.686 31.4021 344.232 31.8674 347.334 31.9294C347.893 31.9406 348.453 31.9294 349.012 31.9294C349.966 31.9294 349.744 33.296 350.374 33.9257C352.035 35.587 355.02 35.454 357.179 35.7292C359.97 36.0848 363.384 36.1286 365.845 37.6915C367.864 38.9736 369.221 40.9141 371.085 42.3419C373.352 44.0782 375.806 45.8882 378.344 47.1966C381.941 49.0504 385.617 50.4614 389.029 52.6637C391.107 54.0047 393.276 55.1738 395.347 56.5429C397.128 57.72 398.883 58.9305 400.644 60.1045C401.453 60.644 402.515 61.1608 403.412 61.545C405.232 62.3252 409.219 63.7036 409.809 60.5015C410.192 58.4244 408.647 56.7474 407.223 55.4994C406.038 54.4606 404.203 54.1358 403.128 53.0607C402.093 52.0255 405.126 51.7563 405.453 51.745C409.324 51.6115 412.144 53.3794 415.571 54.9096C417.652 55.8388 419.814 56.2011 422.025 56.6563C425.208 57.3117 428.51 58.782 431.201 60.5809C432.987 61.7745 435.61 63.454 436.578 65.5262C436.904 66.2267 436.642 67.2476 436.691 67.9989C436.854 70.5199 440.615 72.2637 442.498 73.3753C443.574 74.01 444.694 74.6835 445.538 75.6212C446.273 76.438 446.602 77.5199 447.353 78.3207C449.677 80.7993 451.169 83.7427 452.809 86.7143C453.572 88.0982 454.884 89.074 456.041 90.117C457.593 91.5157 458.998 93.1055 460.669 94.3705C462.448 95.7166 464.252 95.8487 466.363 96.0833C468.11 96.2774 470.031 96.8726 471.638 97.5465C472.842 98.0517 474.04 99.3822 474.938 100.28C475.709 101.051 476.538 101.862 477.116 102.787C479.063 105.902 471.987 105.434 470.515 104.862C469.078 104.305 467.791 103.304 466.204 103.195C465.718 103.162 463.854 102.894 463.482 103.229C462.442 104.165 465.489 106.405 465.966 106.734C467.068 107.493 467.598 107.654 467.883 108.9C468.036 109.57 467.788 110.29 468.042 110.942C468.367 111.777 469.085 112.439 469.766 112.984" stroke="white" stroke-width="2" stroke-linecap="round"/>
<path d="M468.087 113.643C469.944 116.817 469.98 122.961 475.144 121.813C476.695 121.469 476.918 118.15 478.66 118.753C481.266 119.655 481.715 123.488 484.123 124.469C489.105 126.499 494.945 129.597 497.908 134.384C499.73 137.327 502.101 139.87 503.6 143.035C505.228 146.473 506.268 150.1 507.799 153.557C509.026 156.33 510.65 158.84 511.795 161.702C513.362 165.621 513.683 170.086 515.437 173.97C518.09 179.844 521.208 185.062 521.356 191.6C521.421 194.446 521.811 197.239 521.811 200.124C521.811 202.334 520.55 205.316 521.609 207.434C522.664 209.543 525.839 210.409 526.997 212.468C528.377 214.921 529.223 217.966 530.032 220.663C531.165 224.439 531.949 228.285 533.194 232.02C533.876 234.067 535.47 236.331 535.47 238.394C535.47 240.46 532.216 241.938 530.74 242.922C528.58 244.362 529.096 246.957 529.096 249.296C529.096 253.518 533.899 256.92 533.649 261.159C533.575 262.411 526.792 257.34 526.137 255.898C525.045 253.496 525.478 250.641 524.088 248.208C523.854 247.799 522.695 247.731 522.267 247.5C519.956 246.251 518.309 243.844 516.348 242.138C515.217 241.153 511.949 236.337 509.974 237.585C506.179 239.981 509.496 249.933 510.91 252.938C512.237 255.759 512.25 257.621 512.25 260.704C512.25 263.94 509.887 266.275 509.063 269.354C507.897 273.71 508.153 278.079 508.153 282.558C508.153 288.847 508.153 295.137 508.153 301.427C508.153 304.577 508.433 306.617 509.493 309.445C510.594 312.382 510.011 315.33 510.657 318.298C511.12 320.427 511.398 323.433 509.417 324.9C507.77 326.12 503.32 327.076 501.222 326.62C497.085 325.721 493.368 320.792 490.194 318.071C488.035 316.22 486.664 313.069 486.273 310.331C486.028 308.613 484.908 306.82 484.123 305.322C482.964 303.11 482.942 301.32 480.38 300.517C479.285 300.173 477.697 300.165 476.56 300.339C475.853 300.448 475.765 301.34 475.169 301.68C472.095 303.437 471.074 299.106 468.542 298.544C465.886 297.953 463.143 297.973 460.498 297.481C456.075 296.658 456.252 298.025 454.782 302.034C452.351 308.665 445.379 308.51 439.352 308.51C435.693 308.51 428.931 306.631 428.931 311.697C428.931 315.502 425.958 315.837 422.709 316.148C418.782 316.524 416.095 316.215 413.097 313.417C409.91 310.442 406.915 310.786 402.727 310.786C401.973 310.786 397.25 310.141 397.086 311.292C396.946 312.273 396.822 313.999 397.162 314.934C398.603 318.899 406.266 319.642 409.708 320.904C411.902 321.708 411.417 324.637 412.085 326.367C412.684 327.916 413.028 329.609 413.932 331.021C415.137 332.904 416.66 332.582 418.662 332.868C421.102 333.216 426.2 328.721 426.2 326.013C426.2 322.325 428.387 325.348 430.752 323.686C431.795 322.953 432.016 321.504 433.13 320.802C434.369 320.022 436.193 320.347 437.582 320.347C442.275 320.347 444.411 323.864 444.411 328.29C444.411 329.874 443.789 332.195 443.4 333.753C442.857 335.923 441.003 337.699 440.769 339.925C440.628 341.264 439.403 342.305 439.403 343.668C439.403 345.728 439.57 347.234 438.492 349.031" stroke="white" stroke-width="2" stroke-linecap="round"/>
<path d="M345 337.5C346.913 338.071 352.738 339.968 354.688 340.273C355.712 340.433 356.869 341.34 357.68 341.934C358.805 342.757 359.66 342.963 360.35 344.233C361.146 345.697 361.271 347.356 362.044 348.831C362.767 350.209 363.589 350.402 364.811 351.162C365.971 351.884 367.257 352.703 368.288 353.59C369.504 354.638 371.029 355.579 371.353 357.228C371.691 358.948 372.043 361.048 372.821 362.641C373.776 364.595 375.072 365.356 376.951 366.303C378.734 367.202 380.481 368.375 382.13 369.497C383.586 370.489 385.186 371.616 386.365 372.942C387.666 374.406 389.897 375.5 390.809 377.225C391.389 378.322 391.732 379.427 392.197 380.557C392.685 381.743 393.472 382.772 394.068 383.904C395.014 385.702 396.213 385.436 398.053 384.775C401.746 383.45 405.519 381.54 408.701 379.258C409.487 378.694 410.176 377.998 410.911 377.37C411.875 376.547 412.966 375.831 413.863 374.934C415.384 373.414 416.615 371.415 417.735 369.594C419.575 366.605 421.702 363.83 423.833 361.044C424.895 359.656 426.251 358.183 427.705 357.18C429.223 356.133 430.975 355.586 432.481 354.494C434.113 353.31 436.331 352.639 437.5 351" stroke="white" stroke-width="2" stroke-linecap="round"/>
<path d="M5.5 236.5C6.48909 237.654 10.9008 238.578 11.8009 239.789C12.4725 240.693 12.4586 242.001 12.6144 243.06C12.7575 244.033 13.2683 245.384 12.9962 246.364C12.5825 247.853 11.0223 248.897 10.1075 250.066C9.46057 250.893 8.68456 252.485 9.36037 253.536C10.1994 254.841 11.2886 255.972 12.0997 257.354C12.7739 258.503 12.9473 259.896 13.6769 260.99C16.3865 265.054 15.7521 270.966 15.7521 275.666C15.7521 278.562 15.706 281.239 16.632 284.017C17.9075 287.844 18.796 292.125 19.0559 296.153C19.4522 302.296 19.9487 308.419 21.5794 314.399C22.5211 317.851 23.3591 321.357 25.182 324.493C26.8058 327.285 28.2104 330.184 29.648 333.059C30.7572 335.278 30.8684 338.488 30.9761 340.912C31.0878 343.425 30.3495 345.538 30.0796 347.968C29.7936 350.542 29.5946 352.81 30.5777 355.306C31.822 358.465 35.529 361.882 38.5798 363.341C42.9592 365.436 42.8942 370.761 43.7762 374.73C44.1419 376.375 43.1132 377.839 43.8094 379.611C45.0454 382.757 48.3492 383.09 50.4834 385.389C51.1462 386.102 51.4128 387.458 51.9112 388.344C52.85 390.013 54.1143 391.24 55.1984 392.793C56.1208 394.114 57.1156 395.444 58.1701 396.661C59.1862 397.834 59.8079 399.395 61.0755 400.33C65.4593 403.564 68.5803 406.565 70.605 411.852C71.2151 413.445 71.2332 415.417 72.0992 416.932C73.4996 419.383 68.9336 419.756 67.7494 420.286C66.6535 420.776 64.2787 420.798 63.5658 421.846C62.5614 423.323 63.6696 425.073 64.5287 426.263C66.2712 428.675 67.4652 431.111 68.2807 433.966C68.9408 436.276 70.0712 449.678 71 452" stroke="white" stroke-width="2" stroke-linecap="round"/>
<path d="M54.5 114.5C54.5 116.438 53.9011 124.701 53.4348 126.618C53.0275 128.292 50.9716 131.387 49.6067 132.411C47.2993 134.142 48.626 137.5 48.1501 140.084C47.7128 142.458 47.6323 145.039 46.7781 147.317C46.2228 148.797 45.0789 150.239 44.1188 151.483C41.8669 154.402 40.6083 157.333 38.8679 160.596C37.4023 163.344 34.734 166.065 33.922 169.133C33.8282 169.487 33.2987 171.732 33.8204 171.979C35.1826 172.624 37.9751 172.153 38.7324 170.776C40.7873 167.04 42.7248 163.359 44.5253 159.546C45.1736 158.173 45.6145 157.332 46.7273 156.26C47.3792 155.632 49.4293 154.605 50.3351 155.024C51.8273 155.712 51.9568 158.022 53.6888 158.022C55.9311 158.022 57.5931 156.143 58.9905 154.668C60.7141 152.848 61.5602 148.098 64.326 147.672C65.1039 147.553 66.8957 147.37 67.2055 148.299C67.6911 149.756 68.0146 151.239 68.1371 152.771C68.2443 154.111 71.1456 153.753 71.9651 153.753C73.5656 153.753 75.1759 154.755 75.8948 156.192C77.4283 159.259 78.6556 152.89 80.0955 152.838C83.0244 152.734 83.0395 153.393 84.7704 155.684C85.3562 156.459 85.8844 156.986 86.2779 157.852C87.1676 159.809 84.586 160.44 83.1274 160.732C80.2524 161.307 86.2774 165.553 87.0401 165.949C88.5024 166.708 89.6614 167.221 90.6988 168.388C90.9879 168.713 91.0491 169.417 91.4779 169.573C92.1625 169.822 93.5334 169.672 94.0017 169.116C95.0673 167.851 95.4244 164.134 94.4929 162.764C93.7353 161.65 92.5281 160.189 92.5281 158.767C92.5281 156.718 92.7587 155.661 94.9841 155.142C96.844 154.708 99.0939 154.373 99.6083 152.161C100.264 149.341 98.9675 147.607 96.4239 146.199C94.9356 145.375 93.3117 144.829 91.8167 144.014C91.4305 143.803 91.2705 143.303 90.8343 143.065C89.9461 142.581 87.6543 141.766 89.0897 140.643C91.6276 138.657 94.9588 139.364 97.5757 140.575C99.1685 141.313 100.998 141.637 102.725 141.93C103.22 142.014 104.807 141.955 105.147 142.371C105.907 143.3 105.978 145.408 106.536 146.571C107.136 147.82 107.535 149.639 106.824 150.908C106.26 151.914 104.309 154.985 105.537 156.26C106.452 157.211 108.143 157.922 109.297 158.394C109.855 158.623 113.227 159.091 113.227 159.749C113.227 161.454 110.665 164.877 108.772 165.017C106.655 165.174 104.383 165.198 102.352 165.949C100.281 166.714 100.836 169.477 101.98 170.895C102.823 171.94 105.137 173.897 105.35 175.282C105.62 177.037 106.063 179.094 105.926 180.871C105.833 182.079 104.57 184.552 105.401 185.766C105.908 186.507 107.714 186.034 108.23 185.563C108.976 184.882 109.821 183.765 110.212 182.819C111.501 179.697 111.214 175.455 109.026 172.876C107.565 171.155 107.343 170.586 110.076 169.76C112.982 168.881 115.328 168.455 117.156 165.949C118.41 164.231 118.352 162.578 118.444 160.562C118.615 156.799 122.161 153.67 123.779 150.433C124.623 148.746 124.236 146.501 124.236 144.64C124.236 141.542 126.209 138.837 128.505 136.917C130.182 135.514 131.724 133.935 133.688 132.953C135.184 132.205 137.054 131.702 137.499 129.921C138.09 127.558 136.63 125.341 134.789 123.925C132.896 122.469 136.844 120.16 137.821 119.436C140.744 117.273 145.112 115.681 146.358 111.882C147.122 109.55 147.226 107.371 146.866 104.937C146.611 103.215 146.252 101.483 145.816 99.7881C145.061 96.8536 139.067 101.727 137.99 102.803C137.176 103.618 136.213 103.806 135.348 104.514C133.116 106.34 130.929 107.866 128.877 109.917C125.616 113.179 119.426 109.894 115.767 109.561C113.877 109.39 113.065 110.974 111.601 111.95C110.204 112.881 108.318 112.684 106.858 111.916C104.454 110.651 110.208 106.599 111.194 106.258C113.457 105.477 115.846 105.207 118.105 104.378C119.654 103.81 120.995 103.892 121.797 102.346C123.775 98.5318 120.653 94.4861 124.541 91.5561C126.218 90.2925 128.187 88.972 129.419 87.2199C130.813 85.2395 132.873 82.6873 134.891 81.3763C138.185 79.2347 141.345 75.8983 145.172 74.7873C147.632 74.073 150.762 73.8035 153.302 74.2453C155.531 74.6329 157.458 77.5427 159.265 78.717C160.315 79.3996 161.801 80.1905 162.347 81.3932C162.68 82.1248 162.934 82.6914 163.431 83.3242C164.798 85.0636 167.282 86.9828 169.563 86.9828C172.632 86.9828 174.336 85.7649 177.084 84.5437C177.783 84.2329 180.235 82.5142 179.54 81.6642C178.835 80.803 177.897 80.7786 177.897 79.4961C177.897 77.3843 183.793 76.9576 185.451 76.9215C187.031 76.8872 187.561 76.327 188.263 74.9228C189.006 73.4363 186.788 72.7822 185.705 72.0603C184.217 71.0682 183.063 70.8238 181.25 70.8238C179.746 70.8238 178.896 70.7049 179.489 68.9267C180.122 67.0276 183.254 66.2812 184.841 65.5729C187.344 64.4564 190.356 62.6795 191.447 60.0003C192.218 58.1085 192.226 56.0254 192.226 54.0211C192.226 52.4977 191.901 50.5317 193.497 49.6341C194.534 49.0507 195.785 48.9639 196.935 48.8041C198.091 48.6436 199.218 48.0652 200.357 47.9742C201.986 47.8438 203.467 47.467 205.032 46.9748C206.543 46.4992 208.965 45.9216 210.147 44.8406C211.654 43.4614 212.469 41.41 213.806 39.8608C215.624 37.7525 217.965 37.591 220.581 37.591C222.762 37.591 225.681 38.1042 227.78 37.4047C231.311 36.2275 234.21 33.8488 237.045 31.5611C242.529 27.1351 250.776 28.9786 257.32 28.4444C260.368 28.1956 263.299 27.8875 266.161 26.7675C267.893 26.0901 269.578 25.3613 271.328 24.718C271.606 24.6158 273.649 24.2794 273.733 23.9727C274.06 22.7728 270.802 21.2915 270.108 20.89C268.693 20.0716 266.305 18.9615 268.889 17.4854C269.408 17.1888 270.032 17.2061 270.515 16.8587C271.788 15.9418 268.318 14.5265 267.771 14.3519C265.537 13.639 262.754 13.4634 260.386 13.5049C259.065 13.5281 257.51 13.5134 256.253 13.9623C255.545 14.2151 255.56 13.3683 255.406 12.8274C255 11.4088 254.037 10.761 252.458 10.761C251.228 10.761 248.943 10.2922 247.851 10.9473C245.773 12.1944 243.962 13.8132 241.652 14.6567C236.537 16.5239 231.547 18.1673 226.611 20.4496C222.048 22.5594 217.537 24.5401 212.789 26.1747C208.545 27.6358 204.49 28.2193 200.035 28.5969C198.827 28.6992 197.505 28.9003 196.291 28.6816C194.569 28.3709 194.109 27.2486 192.836 26.378C191.434 25.4184 190.936 23.9354 188.974 23.8711C185.444 23.7554 181.906 23.8385 178.71 25.548C175.762 27.1244 172.991 28.8346 169.953 30.2738C167.374 31.4952 164.426 32.2562 161.975 33.6953C159.17 35.3416 156.262 36.0666 153.048 36.0666C151.211 36.0666 139.496 39.5025 138 40.5" stroke="white" stroke-width="2" stroke-linecap="round"/>
<path d="M230.541 89.6859C228.003 88.7835 223.341 87.1306 221.785 90.3617C221.626 90.6937 221.535 91.9018 221.019 91.8485C219.715 91.7135 218.485 89.9638 217.625 89.0851C216.392 87.8242 215.694 87.7254 214.186 89.01C212.731 90.2496 211.185 91.6397 209.29 92.1338C206.84 92.7731 207.563 95.7854 207.563 97.7357C207.563 100.328 208.434 102.224 206.482 104.299C205.026 105.845 203.517 106.861 201.676 107.948C198.837 109.625 196.175 111.608 193.296 113.205C191.684 114.098 189.491 115.6 187.679 116.118C186.653 116.411 185.43 116.406 185.006 117.68C184.596 118.91 185.235 119.66 185.606 120.774C186.5 123.456 178.665 123.265 177.511 123.492C175.097 123.967 173.09 125.092 171.099 126.586C166.112 130.326 162.64 136.434 160.105 142.01C159.608 143.103 158.808 144.052 158.363 145.163C157.994 146.086 158.014 146.784 157.282 147.536C155.825 149.035 154.709 149.722 155.179 152.072C155.543 153.89 158.625 155.917 160.391 155.917C161.433 155.917 162.368 155.108 163.229 154.625C165.662 153.261 168.429 152.539 170.498 150.57C172.264 148.89 174.271 146.678 176.866 146.47C180.024 146.217 183.65 147.558 186.643 146.275C191.16 144.339 196.08 144.576 200.925 145.163C203.781 145.51 206.65 146.145 209.546 145.869C211.776 145.657 213.335 144.379 215.012 143.046C217.619 140.974 220.697 138.844 221.019 135.372C221.188 133.557 221.149 131.8 222.762 130.566C225.156 128.733 228.265 127.355 230.962 126.09C235.494 123.965 241.397 122.837 243.126 117.65C244.165 114.534 244.63 111.208 247.512 109.21C248.711 108.378 253.288 107.889 253.504 106.161C253.695 104.632 251.56 104.319 250.5 103.998C248.286 103.327 245.613 102.63 243.607 101.445C242.484 100.782 243.517 97.4909 243.517 96.4441C243.517 93.6997 240.139 93.0121 237.945 92.6745C236.074 92.3867 235.112 91.8936 233.575 90.8273C231.834 89.6197 229.904 89.8635 228.108 89.1452" stroke="white" stroke-width="2" stroke-linecap="round"/>
<path d="M217.564 163.216C215.777 163.216 214.433 162.859 212.758 162.194C211.422 161.663 209.756 161.379 208.493 160.723C207.081 159.988 205.971 157.951 205.459 156.517C204.904 154.962 203.299 157.458 203.087 158.139C202.407 160.323 203.411 162.693 204.168 164.687C205.051 167.017 204.278 168.77 201.87 169.673C200.22 170.292 197.298 170.287 196.373 172.136C195.218 174.448 199.072 176.013 200.473 176.897C203.158 178.591 206.202 179.021 208.914 180.457C210.234 181.155 211.085 179.301 211.527 178.234C212.244 176.503 213.428 174.937 215.462 175.11C217.939 175.321 219.392 178.802 221.499 179.856C223.692 180.953 225.246 176.838 225.524 175.41C225.964 173.146 224.301 171.266 222.716 169.839C221.875 169.082 221.196 168.014 220.132 167.541C218.922 167.003 219.043 166.257 218.901 165.123C218.761 164.004 217.62 163.382 217.294 162.405" stroke="white" stroke-width="2" stroke-linecap="round"/>
</g>
</svg>
